<svg width="720" height="720" viewBox="0 0 720 720" xmlns="http://www.w3.org/2000/svg" style="font-family: system-ui">
  <defs>
    <style>
      @import url('https://fonts.googleapis.com/css2?family=Outfit:wght@400;700&amp;family=DM+Mono&amp;display=swap');
    </style>
    <clipPath id="bg-clip">
      <rect x="0" y="0" width="720" height="720" rx="72"/>
    </clipPath>
    <linearGradient id="bg-grad" x1="0" y1="0" x2="1" y2="1">
      <stop offset="0%" stop-color="#0c1226"/>
      <stop offset="100%" stop-color="#0e1830"/>
    </linearGradient>
    <filter id="orange-glow">
      <feGaussianBlur stdDeviation="8" result="blur"/>
      <feComposite in="SourceGraphic" in2="blur" operator="over"/>
    </filter>
  </defs>

  <rect x="0" y="0" width="720" height="720" rx="72" fill="url(#bg-grad)"/>

  <g clip-path="url(#bg-clip)">
    <rect x="88" y="138" width="552" height="50" fill="#14265a" opacity="0.9"/>
    <rect x="88" y="188" width="69" height="350" fill="#0f1e44" opacity="0.9"/>

    <line x1="88" y1="138" x2="640" y2="138" stroke="#32508c" stroke-width="2"/>
    <line x1="88" y1="188" x2="640" y2="188" stroke="#32508c" stroke-width="2"/>
    <line x1="88" y1="238" x2="640" y2="238" stroke="#1c3058" stroke-width="1"/>
    <line x1="88" y1="288" x2="640" y2="288" stroke="#1c3058" stroke-width="1"/>
    <line x1="88" y1="338" x2="640" y2="338" stroke="#1c3058" stroke-width="1"/>
    <line x1="88" y1="388" x2="640" y2="388" stroke="#1c3058" stroke-width="1"/>
    <line x1="88" y1="438" x2="640" y2="438" stroke="#1c3058" stroke-width="1"/>
    <line x1="88" y1="488" x2="640" y2="488" stroke="#1c3058" stroke-width="1"/>

    <line x1="88"  y1="138" x2="88"  y2="488" stroke="#32508c" stroke-width="2"/>
    <line x1="157" y1="138" x2="157" y2="488" stroke="#32508c" stroke-width="2"/>
    <line x1="226" y1="138" x2="226" y2="488" stroke="#1c3058" stroke-width="1"/>
    <line x1="295" y1="138" x2="295" y2="488" stroke="#1c3058" stroke-width="1"/>
    <line x1="364" y1="138" x2="364" y2="488" stroke="#1c3058" stroke-width="1"/>
    <line x1="433" y1="138" x2="433" y2="488" stroke="#1c3058" stroke-width="1"/>
    <line x1="502" y1="138" x2="502" y2="488" stroke="#1c3058" stroke-width="1"/>
    <line x1="571" y1="138" x2="571" y2="488" stroke="#1c3058" stroke-width="1"/>
    <line x1="640" y1="138" x2="640" y2="488" stroke="#1c3058" stroke-width="1"/>

    <text x="191" y="170" text-anchor="middle" font-family="'DM Mono', monospace" font-size="13" fill="#ff8a28" opacity="0.5">A</text>
    <text x="260" y="170" text-anchor="middle" font-family="'DM Mono', monospace" font-size="13" fill="#ff8a28" opacity="0.5">B</text>
    <text x="329" y="170" text-anchor="middle" font-family="'DM Mono', monospace" font-size="13" fill="#ff8a28" opacity="0.5">C</text>
    <text x="398" y="170" text-anchor="middle" font-family="'DM Mono', monospace" font-size="13" fill="#ff8a28" opacity="0.5">D</text>
    <text x="467" y="170" text-anchor="middle" font-family="'DM Mono', monospace" font-size="13" fill="#ff8a28" opacity="0.5">E</text>
    <text x="536" y="170" text-anchor="middle" font-family="'DM Mono', monospace" font-size="13" fill="#ff8a28" opacity="0.5">F</text>
    <text x="605" y="170" text-anchor="middle" font-family="'DM Mono', monospace" font-size="13" fill="#ff8a28" opacity="0.5">G</text>

    <text x="122" y="218" text-anchor="middle" font-family="'DM Mono', monospace" font-size="13" fill="#4691e6" opacity="0.45">1</text>
    <text x="122" y="268" text-anchor="middle" font-family="'DM Mono', monospace" font-size="13" fill="#4691e6" opacity="0.45">2</text>
    <text x="122" y="318" text-anchor="middle" font-family="'DM Mono', monospace" font-size="13" fill="#4691e6" opacity="0.45">3</text>
    <text x="122" y="368" text-anchor="middle" font-family="'DM Mono', monospace" font-size="13" fill="#4691e6" opacity="0.45">4</text>
    <text x="122" y="418" text-anchor="middle" font-family="'DM Mono', monospace" font-size="13" fill="#4691e6" opacity="0.45">5</text>
    <text x="122" y="468" text-anchor="middle" font-family="'DM Mono', monospace" font-size="13" fill="#4691e6" opacity="0.45">6</text>

    <rect x="167" y="197" width="49" height="21" rx="10" fill="#ff8228" opacity="0.82"/>
    <rect x="305" y="197" width="49" height="21" rx="10" fill="#4691e6" opacity="0.82"/>
    <rect x="374" y="197" width="49" height="21" rx="10" fill="#ffaf5a" opacity="0.82"/>
    <rect x="167" y="247" width="49" height="21" rx="10" fill="#ffaf5a" opacity="0.82"/>
    <rect x="236" y="247" width="49" height="21" rx="10" fill="#ff8228" opacity="0.82"/>
    <rect x="443" y="247" width="49" height="21" rx="10" fill="#4691e6" opacity="0.82"/>
    <rect x="167" y="297" width="49" height="21" rx="10" fill="#ff8228" opacity="0.82"/>
    <rect x="374" y="297" width="49" height="21" rx="10" fill="#ffaf5a" opacity="0.82"/>
    <rect x="512" y="297" width="49" height="21" rx="10" fill="#4691e6" opacity="0.82"/>
    <rect x="236" y="347" width="49" height="21" rx="10" fill="#ff8228" opacity="0.82"/>
    <rect x="443" y="347" width="49" height="21" rx="10" fill="#4691e6" opacity="0.82"/>
    <rect x="581" y="347" width="49" height="21" rx="10" fill="#ffaf5a" opacity="0.82"/>
    <rect x="305" y="397" width="49" height="21" rx="10" fill="#ffaf5a" opacity="0.82"/>
    <rect x="374" y="397" width="49" height="21" rx="10" fill="#ff8228" opacity="0.82"/>
    <rect x="512" y="397" width="49" height="21" rx="10" fill="#4691e6" opacity="0.82"/>
    <rect x="167" y="447" width="49" height="21" rx="10" fill="#ff8228" opacity="0.82"/>
    <rect x="305" y="447" width="49" height="21" rx="10" fill="#ffaf5a" opacity="0.82"/>
    <rect x="443" y="447" width="49" height="21" rx="10" fill="#4691e6" opacity="0.82"/>
  </g>

  <rect x="100" y="68" width="58" height="52" rx="8" fill="#162a7a"/>
  <rect x="100" y="68" width="58" height="20" rx="8" fill="#c85514"/>
  <rect x="100" y="76" width="58" height="12" fill="#c85514"/>
  <rect x="114" y="62" width="6" height="18" rx="3" fill="#ffe0b8"/>
  <rect x="138" y="62" width="6" height="18" rx="3" fill="#ffe0b8"/>
  <circle cx="112" cy="100" r="3" fill="#ff8228" opacity="0.9"/>
  <circle cx="126" cy="100" r="3" fill="#4691e6" opacity="0.9"/>
  <circle cx="140" cy="100" r="3" fill="#ff8228" opacity="0.9"/>
  <circle cx="112" cy="112" r="3" fill="#4691e6" opacity="0.9"/>
  <circle cx="126" cy="112" r="3" fill="#ff8228" opacity="0.9"/>
  <circle cx="140" cy="112" r="3" fill="#ffaf5a" opacity="0.9"/>

  <line x1="108" y1="516" x2="612" y2="516" stroke="#1c3058" stroke-width="1"/>
  <circle cx="340" cy="516" r="2.5" fill="#ff8228" opacity="0.7"/>
  <circle cx="360" cy="516" r="2.5" fill="#ff8228" opacity="0.7"/>
  <circle cx="380" cy="516" r="2.5" fill="#ff8228" opacity="0.7"/>

  <text x="134" y="608" font-family="'Outfit', sans-serif" font-weight="700" font-size="88"
        fill="#ff8228" opacity="0.18" filter="url(#orange-glow)">Event</text>
  <text x="134" y="608" font-family="'Outfit', sans-serif" font-weight="700" font-size="88"
        fill="#ff8228">Event</text>
  <text x="416" y="608" font-family="'Outfit', sans-serif" font-weight="700" font-size="88"
        fill="#f5f8ff">Sheet</text>

  <text x="360" y="650" text-anchor="middle" font-family="'DM Mono', monospace" font-size="17"
        fill="#ffaf5a" opacity="0.55">plan · organize · execute</text>
</svg>
